HIERARCHY
ROOT root
{
	OFFSET 0.000000 0.000000 0.000000
	CHANNELS 6 Xposition Yposition Zposition Zrotation Yrotation Xrotation
	JOINT lhip
	{
		OFFSET 0.058581 -0.082280 -0.017664
		CHANNELS 3 Zrotation Yrotation Xrotation
		JOINT lknee
		{
			OFFSET 0.043451 -0.386469 0.008037
			CHANNELS 3 Zrotation Yrotation Xrotation
			JOINT lankle
			{
				OFFSET -0.014790 -0.426874 -0.037428
				CHANNELS 3 Zrotation Yrotation Xrotation
				JOINT ltoe
				{
					OFFSET 0.041054 -0.060286 0.122042
					CHANNELS 3 Zrotation Yrotation Xrotation
					End Site
					{
						OFFSET 0.000000 0.000000 0.000000
					}
				}
			}
		}
	}
	JOINT rhip
	{
		OFFSET -0.060310 -0.090513 -0.013543
		CHANNELS 3 Zrotation Yrotation Xrotation
		JOINT rknee
		{
			OFFSET -0.043257 -0.383688 -0.004843
			CHANNELS 3 Zrotation Yrotation Xrotation
			JOINT rankle
			{
				OFFSET 0.019056 -0.420046 -0.034562
				CHANNELS 3 Zrotation Yrotation Xrotation
				JOINT rtoe
				{
					OFFSET -0.034840 -0.062106 0.130323
					CHANNELS 3 Zrotation Yrotation Xrotation
					End Site
					{
						OFFSET 0.000000 0.000000 0.000000
					}
				}
			}
		}
	}
	JOINT lowerback
	{
		OFFSET 0.004439 0.124404 -0.038385
		CHANNELS 3 Zrotation Yrotation Xrotation
		JOINT upperback
		{
			OFFSET 0.004488 0.137956 0.026820
			CHANNELS 3 Zrotation Yrotation Xrotation
			JOINT chest
			{
				OFFSET -0.002265 0.056032 0.002855
				CHANNELS 3 Zrotation Yrotation Xrotation
				JOINT lowerneck
				{
					OFFSET -0.013390 0.211636 -0.033468
					CHANNELS 3 Zrotation Yrotation Xrotation
					JOINT upperneck
					{
						OFFSET 0.010113 0.088937 0.050410
						CHANNELS 3 Zrotation Yrotation Xrotation
						End Site
						{
							OFFSET 0.000000 0.000000 0.000000
						}
					}
				}
				JOINT lclavicle
				{
					OFFSET 0.071702 0.114000 -0.018898
					CHANNELS 3 Zrotation Yrotation Xrotation
					JOINT lshoulder
					{
						OFFSET 0.122921 0.045205 -0.019046
						CHANNELS 3 Zrotation Yrotation Xrotation
						JOINT lelbow
						{
							OFFSET 0.255332 -0.015649 -0.022946
							CHANNELS 3 Zrotation Yrotation Xrotation
							JOINT lwrist
							{
								OFFSET 0.265709 0.012698 -0.007375
								CHANNELS 3 Zrotation Yrotation Xrotation
								End Site
								{
									OFFSET 0.000000 0.000000 0.000000
								}
							}
						}
					}
				}
				JOINT rclavicle
				{
					OFFSET -0.082954 0.112472 -0.023707
					CHANNELS 3 Zrotation Yrotation Xrotation
					JOINT rshoulder
					{
						OFFSET -0.113228 0.046853 -0.008472
						CHANNELS 3 Zrotation Yrotation Xrotation
						JOINT relbow
						{
							OFFSET -0.260127 -0.014369 -0.031269
							CHANNELS 3 Zrotation Yrotation Xrotation
							JOINT rwrist
							{
								OFFSET -0.269108 0.006794 -0.006027
								CHANNELS 3 Zrotation Yrotation Xrotation
								End Site
								{
									OFFSET 0.000000 0.000000 0.000000
								}
							}
						}
					}
				}
			}
		}
	}
}
MOTION
Frames: 10
Frame Time: 0.033333
2.267733 -0.380472 0.981086 -77.178096 4.320784 88.159583 4.433810 0.045186 7.171030 -3.427673 -15.265077 10.290473 5.031206 8.060782 -22.779072 0.000000 -0.000000 0.000000 -1.617910 -2.187387 -13.301789 3.383813 -4.786098 5.474026 4.098053 -5.003077 2.383049 0.000000 -0.000000 0.000000 0.658983 0.623022 5.899525 1.217408 -1.823392 4.901632 2.223916 -1.163072 0.462324 -4.503620 23.189064 -3.105521 -2.252072 20.680682 -11.677505 -21.995102 -6.163798 7.132425 -61.058305 -8.864253 10.899711 9.883636 -31.424805 13.500482 2.728553 -5.690908 -7.349120 18.874996 -0.429951 7.234063 65.330650 -0.063299 10.088032 -18.846864 29.317617 1.046835 6.477026 4.424293 -10.433422 
2.267872 -0.380729 0.981368 -77.025355 4.614516 88.030717 5.193876 0.237990 7.579335 -3.830731 -15.470931 9.587219 4.794485 7.599750 -22.456476 0.000000 -0.000000 0.000000 -1.478951 -2.472997 -13.224729 3.526418 -5.182972 5.628465 4.431355 -4.771665 3.372465 0.000000 -0.000000 0.000000 0.865256 0.629124 6.040594 1.232684 -1.738827 4.762760 2.219898 -1.081687 0.581635 -4.247050 23.491269 -2.959048 -2.305489 20.777080 -11.623014 -21.745955 -6.429400 7.414290 -61.393848 -8.541866 10.829872 10.030931 -30.324323 13.740209 2.442662 -5.737758 -7.282493 19.022825 -0.408654 7.276954 65.061444 -0.038928 9.901434 -18.863477 29.509854 1.098481 6.298730 4.619939 -10.615128 
2.268002 -0.381200 0.981688 -76.777977 4.797202 87.773419 5.707371 0.362805 7.933917 -4.248987 -15.400564 9.452404 4.825330 7.248889 -22.369226 0.000000 -0.000000 0.000000 -1.541425 -2.726859 -12.853695 3.721470 -5.567986 5.512704 4.915632 -4.549295 4.583406 0.000000 -0.000000 0.000000 1.097233 0.699098 6.405420 1.153406 -1.759910 4.752911 2.184505 -1.009602 0.418461 -4.117667 23.725869 -2.682990 -2.270084 20.995850 -11.652617 -21.551176 -6.798693 7.592570 -61.738223 -8.250844 10.715171 10.292848 -28.794817 13.875199 1.755780 -5.552595 -6.970351 19.142124 -0.489315 7.133213 64.864832 -0.168351 9.685495 -18.909752 29.949681 1.152041 6.462551 4.585895 -10.692256 
2.267994 -0.382098 0.981607 -76.391291 4.904731 87.237984 6.159799 0.598407 8.776173 -4.558635 -15.923451 8.930929 4.666104 6.793316 -22.251646 0.000000 -0.000000 0.000000 -1.780783 -3.306509 -12.077153 3.953915 -5.915608 5.331907 5.585222 -4.185647 5.956561 0.000000 -0.000000 0.000000 1.351896 0.722427 6.984212 1.000415 -1.891142 4.838266 2.123057 -0.894055 0.221252 -3.967803 24.072122 -2.266995 -2.184097 21.308899 -11.448413 -21.245131 -7.229935 7.719823 -62.319113 -7.926685 10.410542 10.626683 -26.445977 14.204144 1.416362 -5.421303 -6.596335 19.168687 -0.376636 7.063745 64.828422 -0.036464 9.264535 -19.078917 30.312831 1.090476 6.549490 4.494253 -10.693624 
2.268753 -0.382646 0.981416 -76.503409 4.684755 87.434153 5.795386 0.619921 8.474999 -4.546808 -15.749363 9.102053 4.916845 6.866943 -22.320606 0.000000 -0.000000 0.000000 -2.029935 -3.354875 -12.400750 3.917922 -5.774722 5.386553 5.668357 -4.226714 6.127725 0.000000 -0.000000 0.000000 1.159854 0.854755 6.811879 0.982209 -1.823210 4.706662 2.128559 -0.851272 0.271178 -3.900923 24.079811 -2.006429 -2.211174 21.447871 -11.365211 -21.250195 -7.174762 7.679685 -62.375482 -7.847707 10.414252 10.676198 -25.764003 14.294885 1.272121 -5.241287 -6.480968 19.188790 -0.470856 7.070826 64.802975 0.199056 9.243157 -19.201754 30.347156 0.670356 6.566643 4.322336 -10.824575 
2.269598 -0.383319 0.981119 -76.766244 4.446233 87.469713 5.365305 0.536271 8.491093 -4.439872 -15.796895 8.918594 5.058727 7.192522 -22.266628 0.000000 -0.000000 0.000000 -2.316163 -3.518984 -12.587919 3.905282 -5.532253 5.432679 5.832184 -4.147472 6.458978 0.000000 -0.000000 0.000000 0.953572 1.056930 6.611861 0.943452 -1.735814 4.763888 2.079788 -0.791938 0.379922 -3.724969 24.054813 -1.708410 -2.204348 21.445940 -11.079057 -21.352088 -7.091015 7.571639 -62.303568 -7.660144 10.282504 10.964550 -24.748763 13.806594 1.156820 -4.806466 -6.168854 19.316726 -0.437094 7.083738 64.751723 0.609976 9.304284 -19.478873 30.381629 0.024862 6.512404 4.093257 -10.698089 
2.269247 -0.383428 0.980911 -76.694550 4.537102 87.295926 5.574908 0.819486 8.838328 -4.445568 -15.941659 8.687946 4.924182 7.022769 -22.216491 0.000000 -0.000000 0.000000 -2.242594 -3.628244 -12.281778 3.915113 -5.570959 5.288081 5.884608 -4.116789 6.603196 0.000000 -0.000000 0.000000 0.926158 1.031857 6.643237 0.991323 -1.709267 4.851694 2.064499 -0.752865 0.286423 -3.323748 23.796361 -1.095301 -1.990361 21.157412 -10.766088 -21.556838 -6.825410 7.617501 -61.966041 -7.320221 10.002402 10.983369 -24.443615 13.862650 0.779710 -4.728408 -5.520535 19.426474 -0.527060 6.944219 64.714822 0.703779 9.238770 -19.460256 30.477638 -0.052040 6.712466 3.932859 -10.713262 
2.268936 -0.383432 0.980751 -76.503865 4.815091 86.982020 5.981184 1.027212 9.186771 -4.501671 -16.110377 8.752799 4.681751 6.892475 -22.288761 0.000000 -0.000000 0.000000 -1.966401 -3.404592 -11.783195 3.848216 -5.797951 5.081634 5.853716 -4.189380 6.613988 0.000000 -0.000000 0.000000 1.155445 0.840576 6.953049 1.007736 -1.682201 4.768677 1.949853 -0.700498 0.257585 -2.925629 22.950447 -0.589552 -1.489755 20.196309 -10.219766 -21.650828 -6.364033 7.595341 -61.682108 -7.155013 9.639586 10.934944 -24.445438 13.910748 0.661766 -4.723070 -4.849650 19.492785 -0.541031 6.659071 64.849070 0.642362 9.166446 -19.385500 30.506122 0.095353 6.483814 3.919908 -10.579350 
2.269448 -0.383946 0.980610 -76.430890 4.734909 87.039852 5.912758 1.029289 9.114423 -4.584146 -16.230669 8.649140 4.586479 6.944046 -22.153332 0.000000 -0.000000 0.000000 -2.095595 -3.479789 -11.866001 3.842124 -5.685369 5.066590 5.895079 -4.241740 6.822278 0.000000 -0.000000 0.000000 1.001779 0.878788 6.795631 1.056818 -1.714288 4.707767 1.785751 -0.734263 0.343279 -2.331336 21.219830 -0.229769 -0.724322 18.400538 -9.535880 -21.583186 -5.651682 7.549909 -61.327029 -7.150776 9.566727 10.661344 -24.793200 14.009942 0.712050 -4.795921 -4.716689 19.546787 -0.659537 6.277997 65.014707 0.547804 9.358561 -19.363589 30.537267 0.172361 6.354087 3.837441 -10.452335 
2.269417 -0.384100 0.980713 -76.072446 4.819382 86.974439 6.296432 1.207340 9.398195 -4.836848 -16.580095 8.143038 4.464261 6.606998 -21.992102 0.000000 -0.000000 0.000000 -2.063753 -3.335801 -11.663065 3.812118 -5.867341 4.954347 5.798984 -4.429651 7.009218 0.000000 -0.000000 0.000000 0.855430 0.693175 6.762795 1.153721 -1.743138 4.686912 1.652158 -0.800874 0.546396 -1.733767 18.582149 0.118625 0.153743 15.889037 -9.376425 -21.635555 -4.867785 7.338751 -60.855441 -7.196925 9.564775 10.360077 -25.405147 14.097304 1.142676 -4.948499 -4.697487 19.743276 -0.765697 5.741180 65.103095 0.310143 9.538682 -19.294716 30.588536 0.354033 6.126005 3.736985 -10.258684 
